<?xml version="1.0" encoding="UTF-8" standalone="no"?>
<!DOCTYPE svg PUBLIC "-//W3C//DTD SVG 1.1//EN" "http://www.w3.org/Graphics/SVG/1.1/DTD/svg11.dtd">
<svg width="100%" height="100%" viewBox="0 0 640 640" version="1.1" xmlns="http://www.w3.org/2000/svg" xmlns:xlink="http://www.w3.org/1999/xlink" xml:space="preserve" style="fill-rule:evenodd;clip-rule:evenodd;stroke-linejoin:round;stroke-miterlimit:1.41421;">
    <g transform="matrix(1,0,0,1,41.4282,19.9996)">
        <path d="M542.411,136.607C522.992,144.978 501.898,151.005 480.135,153.348C502.568,139.956 519.643,118.862 527.679,93.75C506.92,106.139 483.483,115.179 459.041,119.866C439.286,98.772 411.161,85.714 380.023,85.714C320.09,85.714 271.875,134.264 271.875,193.862C271.875,202.232 272.88,210.603 274.554,218.639C184.822,213.951 104.799,171.094 51.563,105.469C42.188,121.54 36.83,139.956 36.83,160.045C36.83,197.545 55.915,230.692 85.045,250.112C67.299,249.442 50.558,244.42 36.161,236.384C36.161,236.719 36.161,237.389 36.161,237.723C36.161,290.291 73.326,333.817 122.88,343.862C113.839,346.206 104.13,347.545 94.42,347.545C87.388,347.545 80.692,346.875 73.996,345.871C87.723,388.728 127.567,419.867 175.112,420.871C137.947,450.001 91.406,467.076 40.848,467.076C31.808,467.076 23.438,466.742 14.732,465.737C62.612,496.541 119.531,514.286 180.804,514.286C379.688,514.286 488.505,349.554 488.505,206.585C488.505,201.898 488.505,197.21 488.17,192.523C509.264,177.121 527.679,158.036 542.411,136.607Z" style="fill:rgb(166,172,191);fill-rule:nonzero;"/>
    </g>
</svg>
