<?xml version="1.0" encoding="UTF-8" standalone="no"?>
<!DOCTYPE svg PUBLIC "-//W3C//DTD SVG 1.1//EN" "http://www.w3.org/Graphics/SVG/1.1/DTD/svg11.dtd">
<svg width="100%" height="100%" viewBox="0 0 84 198" version="1.1" xmlns="http://www.w3.org/2000/svg" xmlns:xlink="http://www.w3.org/1999/xlink" xml:space="preserve" style="fill-rule:evenodd;clip-rule:evenodd;stroke-linejoin:round;stroke-miterlimit:1.41421;">
    <g>
        <path d="M64.322,65.306L30.816,42.04L30.816,53.352L64.322,76.341L64.322,65.306Z" style="fill:rgb(164,173,191);"/>
        <g transform="matrix(1,0,0,-1,0,118.381)">
            <path d="M64.322,65.306L30.816,42.04L30.816,53.352L64.322,76.341L64.322,65.306Z" style="fill:rgb(164,173,191);"/>
        </g>
        <g transform="matrix(1.47213e-18,-0.0240418,0.0240418,1.47213e-18,15.6736,147.326)">
            <g transform="matrix(1,0,0,1,-500,-500)">
                <g transform="matrix(0.84568,0.84568,-0.84568,0.84568,492.34,-338.021)">
                    <g transform="matrix(1,0,0,1,-85.9853,-20.6817)">
                        <rect x="303.148" y="228.788" width="262.003" height="262.003" style="fill:rgb(21,149,204);"/>
                    </g>
                    <g transform="matrix(1.11022e-16,-1,1,1.11022e-16,292.046,1076.93)">
                        <rect x="303.148" y="228.788" width="262.003" height="262.003" style="fill:rgb(164,173,191);"/>
                    </g>
                    <g transform="matrix(1.11022e-16,-1,1,1.11022e-16,292.046,773.257)">
                        <rect x="303.148" y="228.788" width="262.003" height="262.003" style="fill:rgb(164,173,191);"/>
                    </g>
                    <g transform="matrix(1.11022e-16,-1,1,1.11022e-16,-11.6244,1076.93)">
                        <rect x="303.148" y="228.788" width="262.003" height="262.003" style="fill:rgb(164,173,191);"/>
                    </g>
                </g>
            </g>
        </g>
        <rect x="30.816" y="143.268" width="33.505" height="8.907" style="fill:rgb(164,173,191);"/>
        <g transform="matrix(1,0,0,1,0,-11)">
            <path d="M64.322,143.268L39.994,143.268L39.994,128.946C39.941,127.976 40.65,127.739 41.602,127.737L64.322,127.737L64.322,119.01L56.082,119.01L39.393,119.01C33.95,118.977 30.778,122.845 30.816,127.124L30.816,152.174L64.322,152.174L64.322,143.268Z" style="fill:rgb(164,173,191);"/>
        </g>
        <g transform="matrix(1,0,0,1,0,-44)">
            <path d="M64.322,143L53.788,143.103L41.382,143.103C40.5,143.123 40,142.81 39.994,141.529L39.994,128.946C39.941,127.976 40.65,127.739 41.602,127.737L53.659,127.737C54.788,127.761 54.949,128.369 54.976,128.946L54.976,141.84C54.941,142.555 54.542,142.973 53.788,143.103L64.322,143L64.322,127.124C64.31,122.458 60.841,118.941 56.082,119.01L39.393,119.01C33.95,118.977 30.778,122.845 30.816,127.124L30.816,143.268C30.756,148.501 34.927,151.988 39.393,152.009L56.082,152.009C61.438,152.031 64.335,147.756 64.322,143Z" style="fill:rgb(164,173,191);"/>
        </g>
    </g>
</svg>
